<svg width="96" height="40" viewBox="0 0 96 40" fill="none" xmlns="http://www.w3.org/2000/svg">
<path d="M0.652344 0.964609H6.67561C9.18769 0.964609 11.8425 1.3404 14.1833 3.62405C15.8675 5.27174 16.9237 7.52648 16.9237 10.5328C16.9237 13.568 15.8961 15.765 14.326 17.3548C11.6998 20.0432 8.41694 20.2455 6.81834 20.2455H0.652344V0.964609ZM5.04847 4.72251V16.4876H6.21887C7.13235 16.4876 9.13059 16.4009 10.5579 15.1868C11.5856 14.3196 12.4134 12.6719 12.4134 10.5328C12.4134 8.4515 11.5856 7.12178 10.8434 6.3702C9.41606 4.92486 7.56055 4.72251 6.21887 4.72251H5.04847Z" fill="white"/>
<path d="M28.958 0.964609V4.72251H22.5922V8.4515H28.644V12.2094H22.5922V16.4876H28.958V20.2455H18.196V0.964609H28.958Z" fill="white"/>
<path d="M44.3545 13.3079V9.72341H53.8033V9.92575C53.8033 12.2672 52.9755 15.8228 50.863 18.0486C48.7506 20.2744 46.3242 20.6791 44.069 20.6791C41.7853 20.6791 39.3303 20.3033 37.1037 17.9908C35.9904 16.8345 34.3062 14.493 34.3062 10.6484C34.3062 7.49757 35.448 4.98267 37.0466 3.33498C39.3874 0.87789 42.2706 0.531006 44.5258 0.531006C46.0958 0.531006 48.0941 0.791168 49.8639 1.97635C51.1485 2.84356 52.2618 4.20219 52.9469 5.41628L48.979 7.58429C48.6079 6.83271 48.037 6.05223 47.2948 5.503C46.4384 4.86704 45.4678 4.57797 44.383 4.57797C42.6417 4.57797 41.3571 5.15611 40.4436 6.13895C39.3874 7.26632 38.8165 8.91401 38.8165 10.7062C38.8165 12.9032 39.6158 14.3196 40.4151 15.129C41.5284 16.2853 42.813 16.6322 44.2689 16.6322C46.1529 16.6322 47.152 15.9673 47.5802 15.5915C47.723 15.4759 48.5793 14.7243 48.9504 13.3079H44.3545Z" fill="white"/>
<path d="M65.8385 0.964609V4.72251H59.4726V8.4515H65.5245V12.2094H59.4726V16.4876H65.8385V20.2455H55.0765V0.964609H65.8385Z" fill="white"/>
<path d="M78.1691 0.964609V4.72251H71.8033V8.4515H77.8551V12.2094H71.8033V16.4876H78.1691V20.2455H67.4072V0.964609H78.1691Z" fill="white"/>
<path d="M79.7378 0.964609H86.4177C88.8441 0.964609 90.3571 1.774 91.2705 2.64121C92.0698 3.4217 92.9262 4.80923 92.9262 6.94834C92.9262 8.16243 92.6693 9.66559 91.4418 10.8797C90.7853 11.5156 89.8432 12.0938 88.787 12.3539L94.639 20.2455H89.2723L84.134 12.643V20.2455H79.7378V0.964609ZM84.134 4.43344V9.72341H85.1331C85.9324 9.72341 87.0172 9.63669 87.7594 8.88511C88.0734 8.56713 88.473 7.96008 88.473 7.00616C88.473 5.90769 87.9592 5.32955 87.5881 5.04049C86.8744 4.49125 85.7326 4.43344 85.1616 4.43344H84.134Z" fill="white"/>
<path d="M0.936304 23.5371H2.1067L4.61878 30.7638L7.60186 23.0457L10.4279 30.7638L13.2112 23.5371H14.3816L10.3851 33.6834L7.58759 25.9653L4.59023 33.6834L0.936304 23.5371Z" fill="white"/>
<path d="M20.2337 23.5371V24.5489H16.3514V27.4106H20.1195V28.4224H16.3514V32.1658H20.2337V33.1776H15.2952V23.5371H20.2337Z" fill="white"/>
<path d="M21.7527 23.5371H23.4655C23.9936 23.5371 24.9499 23.5805 25.6493 24.1442C25.949 24.3754 26.5056 24.968 26.5056 26.1387C26.5056 26.6157 26.4057 27.454 25.5636 28.0321C26.891 28.3646 27.3763 29.5353 27.3763 30.4603C27.3763 31.3853 26.9196 32.1369 26.4057 32.5416C25.6493 33.1487 24.7786 33.1776 24.122 33.1776H21.7527V23.5371ZM22.8089 24.5489V27.772H23.6082C24.1648 27.772 25.478 27.6563 25.478 26.1676C25.478 24.5778 23.9365 24.5489 23.6367 24.5489H22.8089ZM22.8089 28.7259V32.1658H24.0221C24.6359 32.1658 25.2353 32.1225 25.6921 31.7611C26.0632 31.4865 26.3201 31.0095 26.3201 30.4314C26.3201 29.6654 25.8776 29.2173 25.5065 29.015C25.1497 28.8126 24.6501 28.7259 23.8937 28.7259H22.8089Z" fill="white"/>
<path d="M36.8918 24.8813L36.0497 25.445C35.9212 25.1848 35.7071 24.8957 35.493 24.7223C35.3075 24.5778 34.9649 24.3899 34.4226 24.3899C33.4805 24.3899 32.824 24.9825 32.824 25.8786C32.824 26.2544 32.9239 26.4712 33.1808 26.7169C33.4663 27.0059 33.8231 27.1649 34.1799 27.3239L35.0934 27.7286C35.65 27.9743 36.1639 28.2345 36.5635 28.6392C37.0488 29.1306 37.2486 29.6943 37.2486 30.3881C37.2486 32.1658 35.9498 33.351 34.237 33.351C33.609 33.351 32.824 33.2209 32.1674 32.5705C31.6964 32.108 31.4109 31.4432 31.2825 30.865L32.3101 30.5759C32.3815 31.0818 32.6099 31.5154 32.8811 31.8045C33.295 32.2236 33.766 32.3393 34.2513 32.3393C35.5501 32.3393 36.1639 31.3998 36.1639 30.4314C36.1639 29.9978 36.0354 29.622 35.6929 29.304C35.4217 29.0439 35.0506 28.8704 34.551 28.6392L33.6946 28.2345C33.3235 28.061 32.8525 27.8587 32.4243 27.4395C32.0104 27.0348 31.7678 26.5868 31.7678 25.8641C31.7678 24.3754 32.8953 23.3781 34.4368 23.3781C35.022 23.3781 35.493 23.4938 35.9641 23.8117C36.3494 24.0719 36.6777 24.4621 36.8918 24.8813Z" fill="white"/>
<path d="M42.8093 24.5489H40.497V33.1776H39.4408V24.5489H37.1285V23.5371H42.8093V24.5489Z" fill="white"/>
<path d="M44.8615 23.5371V29.4486C44.8615 30.258 44.8615 31.1396 45.6179 31.79C46.0033 32.1225 46.6599 32.3393 47.188 32.3393C47.7161 32.3393 48.3727 32.1225 48.758 31.79C49.5145 31.1396 49.5145 30.258 49.5145 29.4486V23.5371H50.5707V29.7376C50.5707 30.547 50.4851 31.3275 49.9713 32.0502C49.4003 32.8451 48.4012 33.351 47.188 33.351C45.9748 33.351 44.9757 32.8451 44.4047 32.0502C43.8909 31.3275 43.8053 30.547 43.8053 29.7376V23.5371H44.8615Z" fill="white"/>
<path d="M52.6044 33.1776V23.5371H54.5456C55.5019 23.5371 56.8578 23.6383 58.0568 24.6645C58.9274 25.4016 59.6839 26.6301 59.6839 28.3646C59.6839 30.3881 58.6991 31.4721 58.014 32.0647C57.1433 32.8162 56.2298 33.1776 54.5313 33.1776H52.6044ZM53.6606 24.5489V32.1658H54.5884C55.3449 32.1658 56.3868 32.0791 57.3146 31.2986C58.0282 30.6916 58.5992 29.7376 58.5992 28.3646C58.5992 26.052 57.0006 24.5489 54.5884 24.5489H53.6606Z" fill="white"/>
<path d="M61.1945 23.5371H62.2507V33.1776H61.1945V23.5371Z" fill="white"/>
<path d="M68.7178 33.351C65.9631 33.351 63.765 31.2263 63.765 28.3646C63.765 25.4883 65.9774 23.3781 68.7178 23.3781C71.4583 23.3781 73.6706 25.4883 73.6706 28.3646C73.6706 31.2263 71.4725 33.351 68.7178 33.351ZM68.7178 24.3899C66.5768 24.3899 64.8498 26.1532 64.8498 28.3646C64.8498 30.5759 66.5768 32.3393 68.7178 32.3393C70.8588 32.3393 72.5858 30.5759 72.5858 28.3646C72.5858 26.1532 70.8588 24.3899 68.7178 24.3899Z" fill="white"/>
<path d="M84.2374 23.0267V24.0004H78.8527L77.5065 28.3821C77.8911 28.2847 78.2036 28.236 78.5882 28.236C82.0018 28.236 84.1653 30.6216 84.1653 33.8592C84.1653 37.3645 81.5931 39.531 78.468 39.531C76.7853 39.531 74.8141 38.8738 73.6602 36.8533L74.5978 36.4638C75.4872 37.8027 76.8815 38.5573 78.4921 38.5573C81.1364 38.5573 83.0595 36.6099 83.0595 33.8835C83.0595 31.1328 81.2085 29.2097 78.5402 29.2097C77.5305 29.2097 76.7372 29.4775 76.0401 29.9157L78.1075 23.0267H84.2374Z" fill="white"/>
<path d="M93.0321 30.8407C94.7389 31.4979 95.6523 33.1776 95.6523 34.9546C95.6523 37.7783 93.5369 39.531 91.0128 39.531C88.4887 39.531 86.3733 37.7783 86.3733 34.9546C86.3733 33.1776 87.2868 31.4979 88.9935 30.8407C86.806 29.6722 86.7579 27.5788 86.7579 27.0919C86.7579 24.6333 88.6089 22.8076 91.0128 22.8076C93.4167 22.8076 95.2677 24.6333 95.2677 27.0919C95.2677 27.5788 95.2196 29.6722 93.0321 30.8407ZM91.0128 30.3782C92.7196 30.3782 94.1619 29.015 94.1619 27.0919C94.1619 25.1688 92.7677 23.7813 91.0128 23.7813C89.258 23.7813 87.8637 25.1688 87.8637 27.0919C87.8637 29.015 89.306 30.3782 91.0128 30.3782ZM91.0128 38.5573C93.1763 38.5573 94.5465 36.9507 94.5465 34.9546C94.5465 32.8124 93.0802 31.3032 91.0128 31.3032C88.9455 31.3032 87.4791 32.8124 87.4791 34.9546C87.4791 36.9507 88.8493 38.5573 91.0128 38.5573Z" fill="white"/>
</svg>
