<svg xmlns="http://www.w3.org/2000/svg" xmlns:xlink="http://www.w3.org/1999/xlink" width="393" zoomAndPan="magnify" viewBox="0 0 294.75 120.749998" height="161" preserveAspectRatio="xMidYMid meet" version="1.0"><defs><g/></defs><g fill="#000000" fill-opacity="1"><g transform="translate(58.93365, 99.709844)"><g><path d="M 0.765625 -6.5 L 3.71875 -6.5 C 4.425781 -6.5 5.050781 -6.363281 5.59375 -6.09375 C 6.132812 -5.820312 6.550781 -5.441406 6.84375 -4.953125 C 7.144531 -4.460938 7.296875 -3.894531 7.296875 -3.25 C 7.296875 -2.601562 7.144531 -2.035156 6.84375 -1.546875 C 6.550781 -1.054688 6.132812 -0.675781 5.59375 -0.40625 C 5.050781 -0.132812 4.425781 0 3.71875 0 L 0.765625 0 Z M 3.640625 -1.234375 C 4.296875 -1.234375 4.816406 -1.410156 5.203125 -1.765625 C 5.585938 -2.128906 5.78125 -2.625 5.78125 -3.25 C 5.78125 -3.863281 5.585938 -4.351562 5.203125 -4.71875 C 4.816406 -5.082031 4.296875 -5.265625 3.640625 -5.265625 L 2.28125 -5.265625 L 2.28125 -1.234375 Z M 3.640625 -1.234375 "/></g></g></g><g fill="#000000" fill-opacity="1"><g transform="translate(74.026807, 99.709844)"><g><path d="M 0.765625 -6.5 L 2.28125 -6.5 L 2.28125 0 L 0.765625 0 Z M 0.765625 -6.5 "/></g></g></g><g fill="#000000" fill-opacity="1"><g transform="translate(84.497329, 99.709844)"><g><path d="M 5.15625 -3.34375 L 6.53125 -3.34375 L 6.53125 -0.71875 C 6.175781 -0.445312 5.765625 -0.238281 5.296875 -0.09375 C 4.835938 0.0390625 4.375 0.109375 3.90625 0.109375 C 3.226562 0.109375 2.617188 -0.03125 2.078125 -0.3125 C 1.546875 -0.601562 1.125 -1.003906 0.8125 -1.515625 C 0.507812 -2.023438 0.359375 -2.601562 0.359375 -3.25 C 0.359375 -3.894531 0.507812 -4.472656 0.8125 -4.984375 C 1.125 -5.492188 1.550781 -5.890625 2.09375 -6.171875 C 2.644531 -6.460938 3.257812 -6.609375 3.9375 -6.609375 C 4.507812 -6.609375 5.023438 -6.507812 5.484375 -6.3125 C 5.953125 -6.125 6.34375 -5.847656 6.65625 -5.484375 L 5.6875 -4.59375 C 5.226562 -5.082031 4.671875 -5.328125 4.015625 -5.328125 C 3.597656 -5.328125 3.226562 -5.238281 2.90625 -5.0625 C 2.582031 -4.894531 2.332031 -4.648438 2.15625 -4.328125 C 1.976562 -4.015625 1.890625 -3.65625 1.890625 -3.25 C 1.890625 -2.84375 1.976562 -2.484375 2.15625 -2.171875 C 2.332031 -1.859375 2.578125 -1.613281 2.890625 -1.4375 C 3.210938 -1.257812 3.578125 -1.171875 3.984375 -1.171875 C 4.421875 -1.171875 4.8125 -1.265625 5.15625 -1.453125 Z M 5.15625 -3.34375 "/></g></g></g><g fill="#000000" fill-opacity="1"><g transform="translate(99.079955, 99.709844)"><g><path d="M 0.765625 -6.5 L 2.28125 -6.5 L 2.28125 0 L 0.765625 0 Z M 0.765625 -6.5 "/></g></g></g><g fill="#000000" fill-opacity="1"><g transform="translate(109.550477, 99.709844)"><g><path d="M 2.109375 -5.265625 L 0.03125 -5.265625 L 0.03125 -6.5 L 5.703125 -6.5 L 5.703125 -5.265625 L 3.625 -5.265625 L 3.625 0 L 2.109375 0 Z M 2.109375 -5.265625 "/></g></g></g><g fill="#000000" fill-opacity="1"><g transform="translate(122.712889, 99.709844)"><g><path d="M 5.046875 -1.390625 L 2.03125 -1.390625 L 1.453125 0 L -0.078125 0 L 2.8125 -6.5 L 4.296875 -6.5 L 7.203125 0 L 5.625 0 Z M 4.578125 -2.53125 L 3.546875 -5.015625 L 2.515625 -2.53125 Z M 4.578125 -2.53125 "/></g></g></g><g fill="#000000" fill-opacity="1"><g transform="translate(137.249103, 99.709844)"><g><path d="M 0.765625 -6.5 L 2.28125 -6.5 L 2.28125 -1.21875 L 5.53125 -1.21875 L 5.53125 0 L 0.765625 0 Z M 0.765625 -6.5 "/></g></g></g><g fill="#000000" fill-opacity="1"><g transform="translate(150.281562, 99.709844)"><g/></g></g><g fill="#000000" fill-opacity="1"><g transform="translate(160.334377, 99.709844)"><g><path d="M 0.765625 -6.5 L 3.71875 -6.5 C 4.425781 -6.5 5.050781 -6.363281 5.59375 -6.09375 C 6.132812 -5.820312 6.550781 -5.441406 6.84375 -4.953125 C 7.144531 -4.460938 7.296875 -3.894531 7.296875 -3.25 C 7.296875 -2.601562 7.144531 -2.035156 6.84375 -1.546875 C 6.550781 -1.054688 6.132812 -0.675781 5.59375 -0.40625 C 5.050781 -0.132812 4.425781 0 3.71875 0 L 0.765625 0 Z M 3.640625 -1.234375 C 4.296875 -1.234375 4.816406 -1.410156 5.203125 -1.765625 C 5.585938 -2.128906 5.78125 -2.625 5.78125 -3.25 C 5.78125 -3.863281 5.585938 -4.351562 5.203125 -4.71875 C 4.816406 -5.082031 4.296875 -5.265625 3.640625 -5.265625 L 2.28125 -5.265625 L 2.28125 -1.234375 Z M 3.640625 -1.234375 "/></g></g></g><g fill="#000000" fill-opacity="1"><g transform="translate(175.427539, 99.709844)"><g><path d="M 5.796875 -1.203125 L 5.796875 0 L 0.765625 0 L 0.765625 -6.5 L 5.6875 -6.5 L 5.6875 -5.296875 L 2.265625 -5.296875 L 2.265625 -3.875 L 5.28125 -3.875 L 5.28125 -2.703125 L 2.265625 -2.703125 L 2.265625 -1.203125 Z M 5.796875 -1.203125 "/></g></g></g><g fill="#000000" fill-opacity="1"><g transform="translate(189.081935, 99.709844)"><g><path d="M 2.90625 0.109375 C 2.394531 0.109375 1.898438 0.0390625 1.421875 -0.09375 C 0.941406 -0.238281 0.554688 -0.421875 0.265625 -0.640625 L 0.765625 -1.765625 C 1.046875 -1.566406 1.378906 -1.40625 1.765625 -1.28125 C 2.148438 -1.15625 2.535156 -1.09375 2.921875 -1.09375 C 3.335938 -1.09375 3.648438 -1.15625 3.859375 -1.28125 C 4.066406 -1.40625 4.171875 -1.578125 4.171875 -1.796875 C 4.171875 -1.941406 4.109375 -2.066406 3.984375 -2.171875 C 3.867188 -2.273438 3.710938 -2.359375 3.515625 -2.421875 C 3.328125 -2.484375 3.070312 -2.550781 2.75 -2.625 C 2.257812 -2.738281 1.851562 -2.851562 1.53125 -2.96875 C 1.21875 -3.09375 0.945312 -3.285156 0.71875 -3.546875 C 0.5 -3.804688 0.390625 -4.148438 0.390625 -4.578125 C 0.390625 -4.960938 0.488281 -5.304688 0.6875 -5.609375 C 0.894531 -5.910156 1.203125 -6.148438 1.609375 -6.328125 C 2.023438 -6.515625 2.53125 -6.609375 3.125 -6.609375 C 3.539062 -6.609375 3.945312 -6.554688 4.34375 -6.453125 C 4.738281 -6.359375 5.085938 -6.21875 5.390625 -6.03125 L 4.921875 -4.890625 C 4.316406 -5.234375 3.71875 -5.40625 3.125 -5.40625 C 2.695312 -5.40625 2.382812 -5.335938 2.1875 -5.203125 C 1.988281 -5.066406 1.890625 -4.882812 1.890625 -4.65625 C 1.890625 -4.4375 2.003906 -4.269531 2.234375 -4.15625 C 2.460938 -4.050781 2.816406 -3.945312 3.296875 -3.84375 C 3.785156 -3.726562 4.1875 -3.609375 4.5 -3.484375 C 4.820312 -3.367188 5.09375 -3.179688 5.3125 -2.921875 C 5.539062 -2.671875 5.65625 -2.332031 5.65625 -1.90625 C 5.65625 -1.53125 5.550781 -1.1875 5.34375 -0.875 C 5.144531 -0.570312 4.835938 -0.332031 4.421875 -0.15625 C 4.003906 0.0195312 3.5 0.109375 2.90625 0.109375 Z M 2.90625 0.109375 "/></g></g></g><g fill="#000000" fill-opacity="1"><g transform="translate(202.430004, 99.709844)"><g><path d="M 0.765625 -6.5 L 2.28125 -6.5 L 2.28125 0 L 0.765625 0 Z M 0.765625 -6.5 "/></g></g></g><g fill="#000000" fill-opacity="1"><g transform="translate(212.900531, 99.709844)"><g><path d="M 5.15625 -3.34375 L 6.53125 -3.34375 L 6.53125 -0.71875 C 6.175781 -0.445312 5.765625 -0.238281 5.296875 -0.09375 C 4.835938 0.0390625 4.375 0.109375 3.90625 0.109375 C 3.226562 0.109375 2.617188 -0.03125 2.078125 -0.3125 C 1.546875 -0.601562 1.125 -1.003906 0.8125 -1.515625 C 0.507812 -2.023438 0.359375 -2.601562 0.359375 -3.25 C 0.359375 -3.894531 0.507812 -4.472656 0.8125 -4.984375 C 1.125 -5.492188 1.550781 -5.890625 2.09375 -6.171875 C 2.644531 -6.460938 3.257812 -6.609375 3.9375 -6.609375 C 4.507812 -6.609375 5.023438 -6.507812 5.484375 -6.3125 C 5.953125 -6.125 6.34375 -5.847656 6.65625 -5.484375 L 5.6875 -4.59375 C 5.226562 -5.082031 4.671875 -5.328125 4.015625 -5.328125 C 3.597656 -5.328125 3.226562 -5.238281 2.90625 -5.0625 C 2.582031 -4.894531 2.332031 -4.648438 2.15625 -4.328125 C 1.976562 -4.015625 1.890625 -3.65625 1.890625 -3.25 C 1.890625 -2.84375 1.976562 -2.484375 2.15625 -2.171875 C 2.332031 -1.859375 2.578125 -1.613281 2.890625 -1.4375 C 3.210938 -1.257812 3.578125 -1.171875 3.984375 -1.171875 C 4.421875 -1.171875 4.8125 -1.265625 5.15625 -1.453125 Z M 5.15625 -3.34375 "/></g></g></g><g fill="#000000" fill-opacity="1"><g transform="translate(227.48316, 99.709844)"><g><path d="M 6.734375 -6.5 L 6.734375 0 L 5.5 0 L 2.25 -3.9375 L 2.25 0 L 0.765625 0 L 0.765625 -6.5 L 2.015625 -6.5 L 5.25 -2.546875 L 5.25 -6.5 Z M 6.734375 -6.5 "/></g></g></g><g fill="#000000" fill-opacity="1"><g transform="translate(31.809534, 83.027893)"><g><path d="M 4.734375 -47.359375 L 27.125 -47.359375 C 32.3125 -47.359375 36.910156 -46.390625 40.921875 -44.453125 C 44.941406 -42.515625 48.054688 -39.757812 50.265625 -36.1875 C 52.472656 -32.625 53.578125 -28.457031 53.578125 -23.6875 C 53.578125 -18.90625 52.472656 -14.726562 50.265625 -11.15625 C 48.054688 -7.59375 44.941406 -4.84375 40.921875 -2.90625 C 36.910156 -0.96875 32.3125 0 27.125 0 L 4.734375 0 Z M 26.59375 -10.6875 C 30.644531 -10.6875 33.898438 -11.835938 36.359375 -14.140625 C 38.816406 -16.441406 40.046875 -19.625 40.046875 -23.6875 C 40.046875 -27.738281 38.816406 -30.914062 36.359375 -33.21875 C 33.898438 -35.519531 30.644531 -36.671875 26.59375 -36.671875 L 18.125 -36.671875 L 18.125 -10.6875 Z M 26.59375 -10.6875 "/></g></g></g><g fill="#000000" fill-opacity="1"><g transform="translate(82.141145, 83.027893)"><g><path d="M 36.46875 -24.6875 L 48.3125 -24.6875 L 48.3125 -5.078125 C 45.601562 -3.140625 42.488281 -1.648438 38.96875 -0.609375 C 35.445312 0.429688 31.929688 0.953125 28.421875 0.953125 C 23.453125 0.953125 18.984375 -0.09375 15.015625 -2.1875 C 11.046875 -4.289062 7.929688 -7.210938 5.671875 -10.953125 C 3.421875 -14.703125 2.296875 -18.945312 2.296875 -23.6875 C 2.296875 -28.414062 3.421875 -32.648438 5.671875 -36.390625 C 7.929688 -40.140625 11.066406 -43.0625 15.078125 -45.15625 C 19.097656 -47.257812 23.632812 -48.3125 28.6875 -48.3125 C 33.101562 -48.3125 37.070312 -47.566406 40.59375 -46.078125 C 44.113281 -44.585938 47.046875 -42.441406 49.390625 -39.640625 L 40.859375 -31.9375 C 37.660156 -35.457031 33.828125 -37.21875 29.359375 -37.21875 C 25.304688 -37.21875 22.035156 -35.988281 19.546875 -33.53125 C 17.066406 -31.070312 15.828125 -27.789062 15.828125 -23.6875 C 15.828125 -21.0625 16.390625 -18.722656 17.515625 -16.671875 C 18.648438 -14.617188 20.226562 -13.019531 22.25 -11.875 C 24.28125 -10.726562 26.609375 -10.15625 29.234375 -10.15625 C 31.796875 -10.15625 34.207031 -10.671875 36.46875 -11.703125 Z M 36.46875 -24.6875 "/></g></g></g><g fill="#000000" fill-opacity="1"><g transform="translate(128.684303, 83.027893)"><g><path d="M 14.8125 -36.734375 L 0.265625 -36.734375 L 0.265625 -47.359375 L 42.6875 -47.359375 L 42.6875 -36.734375 L 28.21875 -36.734375 L 28.21875 0 L 14.8125 0 Z M 14.8125 -36.734375 "/></g></g></g><g fill="#000000" fill-opacity="1"><g transform="translate(166.094559, 83.027893)"><g><path d="M 19.75 -37.28125 C 25.84375 -37.28125 30.488281 -35.890625 33.6875 -33.109375 C 36.894531 -30.335938 38.5 -26.085938 38.5 -20.359375 L 38.5 0 L 26.515625 0 L 26.515625 -4.734375 C 24.671875 -1.171875 21.066406 0.609375 15.703125 0.609375 C 12.859375 0.609375 10.394531 0.113281 8.3125 -0.875 C 6.238281 -1.875 4.671875 -3.21875 3.609375 -4.90625 C 2.554688 -6.59375 2.03125 -8.519531 2.03125 -10.6875 C 2.03125 -14.164062 3.359375 -16.863281 6.015625 -18.78125 C 8.679688 -20.695312 12.785156 -21.65625 18.328125 -21.65625 L 25.640625 -21.65625 C 25.410156 -25.53125 22.816406 -27.46875 17.859375 -27.46875 C 16.097656 -27.46875 14.316406 -27.1875 12.515625 -26.625 C 10.710938 -26.0625 9.179688 -25.28125 7.921875 -24.28125 L 3.578125 -33.015625 C 5.609375 -34.367188 8.078125 -35.414062 10.984375 -36.15625 C 13.898438 -36.90625 16.820312 -37.28125 19.75 -37.28125 Z M 19.28125 -7.515625 C 20.769531 -7.515625 22.078125 -7.875 23.203125 -8.59375 C 24.328125 -9.3125 25.140625 -10.367188 25.640625 -11.765625 L 25.640625 -14.953125 L 20.09375 -14.953125 C 16.351562 -14.953125 14.484375 -13.710938 14.484375 -11.234375 C 14.484375 -10.109375 14.910156 -9.207031 15.765625 -8.53125 C 16.617188 -7.851562 17.789062 -7.515625 19.28125 -7.515625 Z M 19.28125 -7.515625 "/></g></g></g><g fill="#000000" fill-opacity="1"><g transform="translate(203.031255, 83.027893)"><g><path d="M 4.125 -50.203125 L 16.984375 -50.203125 L 16.984375 0 L 4.125 0 Z M 4.125 -50.203125 "/></g></g></g><g fill="#000000" fill-opacity="1"><g transform="translate(218.65786, 83.027893)"><g><path d="M 41.609375 -18.265625 C 41.609375 -18.171875 41.539062 -17.113281 41.40625 -15.09375 L 14.75 -15.09375 C 15.289062 -13.195312 16.335938 -11.738281 17.890625 -10.71875 C 19.453125 -9.707031 21.40625 -9.203125 23.75 -9.203125 C 25.507812 -9.203125 27.03125 -9.445312 28.3125 -9.9375 C 29.601562 -10.4375 30.898438 -11.25 32.203125 -12.375 L 38.96875 -5.34375 C 35.40625 -1.375 30.195312 0.609375 23.34375 0.609375 C 19.0625 0.609375 15.296875 -0.203125 12.046875 -1.828125 C 8.796875 -3.453125 6.28125 -5.707031 4.5 -8.59375 C 2.71875 -11.476562 1.828125 -14.75 1.828125 -18.40625 C 1.828125 -22.007812 2.691406 -25.242188 4.421875 -28.109375 C 6.160156 -30.972656 8.5625 -33.21875 11.625 -34.84375 C 14.695312 -36.46875 18.148438 -37.28125 21.984375 -37.28125 C 25.640625 -37.28125 28.957031 -36.523438 31.9375 -35.015625 C 34.914062 -33.503906 37.269531 -31.316406 39 -28.453125 C 40.738281 -25.585938 41.609375 -22.191406 41.609375 -18.265625 Z M 22.0625 -28.140625 C 20.070312 -28.140625 18.410156 -27.578125 17.078125 -26.453125 C 15.753906 -25.328125 14.910156 -23.796875 14.546875 -21.859375 L 29.5625 -21.859375 C 29.207031 -23.796875 28.363281 -25.328125 27.03125 -26.453125 C 25.695312 -27.578125 24.039062 -28.140625 22.0625 -28.140625 Z M 22.0625 -28.140625 "/></g></g></g></svg>