<?xml version="1.0" encoding="UTF-8"?>
<svg id="Layer_2" data-name="Layer 2" xmlns="http://www.w3.org/2000/svg" xmlns:xlink="http://www.w3.org/1999/xlink" viewBox="0 0 450.8 276.9">
  <defs>
    <style>
      .cls-1 {
        fill: #fff;
      }

      .cls-2 {
        fill: url(#linear-gradient);
      }

      .cls-3 {
        fill: url(#Red);
      }
    </style>
    <linearGradient id="linear-gradient" x1="69.2" y1="231.9" x2="50.3" y2="167.3" gradientTransform="translate(30.7 -6.3) rotate(8.6)" gradientUnits="userSpaceOnUse">
      <stop offset="0" stop-color="#f37f7b"/>
      <stop offset=".5" stop-color="#ed3d57"/>
    </linearGradient>
    <linearGradient id="Red" x1="2" y1="301.1" x2="59.7" y2="237" gradientUnits="userSpaceOnUse">
      <stop offset="0" stop-color="#f37f7b"/>
      <stop offset=".5" stop-color="#ed3d57"/>
      <stop offset="1" stop-color="#dd1e47"/>
    </linearGradient>
  </defs>
  <g id="Layer_1-2" data-name="Layer 1">
    <g>
      <g>
        <path class="cls-2" d="m92.5,161.8c5.9-4.4-71,12.9-70.6,39.4.2,11.2,14.4,16.9,27,23.9.1,0,.3,0,.4-.1,5.7-17.1,7-36.2,43.1-63.1Z"/>
        <path class="cls-3" d="m58.5,213.9c-2.2,11.6-6.4,22.6-23.1,36.3-10.6,8.8-31.3,14.2-33.9,16.8-14.7,14.5,77.9,19.9,78.6-31.6.2-12.1-10.2-17.4-21.6-21.5Z"/>
      </g>
      <path class="cls-1" d="m201,147.6h0c-5.6,0-10.3.2-14.8-.2-1.2-.1-3.3-2.2-3.2-3.3.7-7.3,1.8-14.5,2.9-21.7.9-6,1.9-12,2.9-18.1,1-6.6,2.1-13.1,3.1-19.7,1.1-7.6,2.1-15.2,3.4-22.8.8-5,2.1-9.9,2.9-14.9,1.5-8.7,2.9-17.3,4.3-26,.9-5.3,1.6-10.7,2.9-15.9.3-1.2,2.4-2.7,3.7-2.8,7.4-.3,14.8-.2,22.2,0,1,0,2.7,1.6,2.9,2.6,1.3,7.3,2.4,14.6,3.5,22,.8,5.6,1.2,11.2,1.9,16.8.9,6.9,2,13.7,3.1,20.6.9,5.6,1.8,11.1,2.7,16.7,0,.6.5,1.1.8,1.6.4-.5.9-.9,1.2-1.4,3.1-5.6,6.3-11.2,9.3-17,7.2-13.8,14.3-27.6,21.5-41.4,3.4-6.5,7-12.9,10.7-19.3.4-.7,1.7-1.2,2.5-1.2,6.9,0,13.8,0,20.7,0,2.4,0,3.7,1.2,3.3,3.6-1.2,6.7-2.5,13.3-3.7,20-.7,4.2-1.2,8.4-2,12.5-.9,5-2.2,10-3.2,15-1,5.2-1.9,10.3-2.9,15.5-1.3,7.1-2.6,14.1-3.8,21.2-.5,2.8-.3,5.7-.8,8.5-1.1,6.5-2.5,13-3.6,19.6-1.1,6.4-2,12.8-3,19.1-.4,2.6-.7,5.3-1.6,7.7-.4,1.1-2.2,2.4-3.4,2.4-7.3.3-14.7.2-22,.2-2,0-3.4-3.5-2.8-6.2,1-4.9,1.6-10,2.5-14.9.8-4,1.9-8,2.7-12,1-5,1.6-10.1,2.6-15.2,1.4-7.6,3-15.2,4.5-22.8.3-1.5.3-3.1.4-4.6-.8,1.3,5.6-21.7,4.9-20.4,56.2-55.7-23.1,56.5-30.9,72.7-1.2,2.4-3.6,2.3-9.9,2.6-3.8-.5-3.7-.4-7.3-1.7-1.4-.5-2.4-3.4-2.8-5.4-1.1-5.2-22.9-75.7-23.6-81-1.4-10,47.6,36.3,29.6,40.3h0c-.3-1.7-13.5-8.4-13.9-10.1s0,0,0,0c-.3,1.5-.8,3.1-.9,4.6-1.1,9.1-2.1,18.3-3.3,27.4-.9,6.6-2.3,13.2-3.2,19.8-.8,5.9-.8,11.9-2.2,17.7-1.6,7.1.2,10.3-10.9,9.2Z"/>
      <path class="cls-1" d="m411,33.4c-1,9-1.8,19.4-3.2,29.7-1.4,10.6-3.1,21.2-5.2,31.7-1.3,6.3-3.6,12.5-5.6,18.6-1.6,5-2.7,10.2-5.1,14.8-4.5,8.5-10.2,16.3-20,19.4-6.9,2.2-14,3-21.4,2.7-13.3-.5-23.1-6.1-29.4-17.6-1.9-3.5-2.6-7.8-3.3-11.8-.7-3.8-1-7.8-.7-11.6.5-7,1.6-13.9,2.5-20.9.7-5.3,1.1-10.6,2-15.8.8-4.3,2.2-8.6,3.2-12.9.8-3.6,1.2-7.4,2-11,1.2-4.8,2.2-9.8,4.1-14.4,2.7-6.4,5.5-12.9,9.4-18.6,5.5-8.1,13.6-13.4,23.4-14.7,7.3-.9,14.8-1.5,22-.6,4.9.6,9.5,3.8,13.9,6.5,5.2,3.3,8.7,8.2,9.9,14.4.7,3.4,1,7,1.6,12Zm-64.3,79c.3,1.8.3,3.2.7,4.5,1.6,5,5.5,6.3,10.1,5.8,3.9-.4,7.8-1.8,9.1-5.9,1.7-5.4,2.8-11,4.1-16.5.8-3.4,1.9-6.8,2.5-10.3,1.3-7.9,2.2-15.9,3.4-23.9,1.2-7.7,2.8-15.4,3.8-23.1.5-3.9,1.1-8.4-.2-11.9-2.5-6.9-10.5-6.2-15.4-1.8-3,2.7-4.8,7.2-6,11.3-2.2,7.4-3.5,15-5.1,22.5-1.7,7.8-3.6,15.6-4.7,23.6-1.2,8.6-1.6,17.4-2.3,25.7Z"/>
      <path class="cls-1" d="m86.9,11.3c.6,11.2,1.3,22.5,1.8,33.7.3,6.9.1,13.9.3,20.8.4,15.9.8,31.8,1.3,47.7.3,10.2.8,20.4,1.3,30.6.1,2.7-.7,3.5-3.6,3.4-7.2-.3-14.4-.2-21.6,0-2.2,0-3-.7-2.9-2.9,0-5.2-.1-10.5-.1-15.7,0-2.2-.8-3.4-3.2-3.5-5-.1-10.1,0-15.1-.8-4.7-.7-6.2,2-7.6,5.5-2,5.1-4,10.2-6.3,15.2-.5,1-2.2,2.1-3.3,2.1-8,.2-16,0-24.1,0-3.7,0-4.6-1.2-3.2-4.6,2.9-6.9,6-13.7,8.9-20.6,3.7-8.8,7.2-17.6,10.7-26.5,3.7-9.2,7.3-18.4,10.8-27.6,2.5-6.4,4.6-12.9,7.2-19.2,2.7-6.4,5.9-12.6,8.7-19,3.9-8.6,7.6-17.2,11.5-25.7.4-.9,1.8-1.8,2.8-1.8,7.2-.2,14.3-.1,21.5,0,2.7,0,4.3,1.3,4.2,4.2,0,1.6,0,3.1,0,4.7,0,0-.1,0-.2,0Zm-29.8,86.6c1.3,0,2.6.3,3.7,0,1.1-.4,2.6-1.5,2.6-2.4.6-12.3,1-24.5,1.4-36.8,0-1.1,0-2.2-.3-3.3-.1-.5-.7-.9-1-1.4-.5.4-1.2.8-1.4,1.3-3.8,11.3-7.6,22.7-11.3,34-3,9.2-3.2,8.6,6.2,8.7Z"/>
      <path class="cls-1" d="m156,2.3c11.4,0,22.7,0,34.1.1.9,0,2.6,2,2.4,2.8-.8,6.3-2,12.6-3.1,18.9-.1.6-.2,1.3-.2,2,0,3.1-1,4.8-4.8,4.4-5.1-.5-10.4-.4-15.5,0-1,0-2.3,2.7-2.6,4.3-1.7,8.3-3.1,16.7-4.7,25-.8,3.8-2.2,7.6-3,11.4-1.1,5-1.8,10.1-2.7,15.1-.9,5.1-1.9,10.1-2.9,15.2-1,5.4-1.9,10.8-3,16.2-1.4,7.4-3,14.8-4.5,22.1-.3,1.4-.2,3.1-.9,4.2-.9,1.4-2.4,3.1-3.7,3.2-5.5.4-11,.1-16.5.2-1.2,0-2.5.5-3.6.2-4-.9-5.2-5.3-3.5-11.1.9-3.1,1.5-6.3,2.1-9.4,1.5-7.9,2.9-15.9,4.3-23.8.8-4.4,1.3-8.9,2.1-13.4,1.3-6.9,2.6-13.7,4.1-20.5.9-4.2,2.3-8.4,3.2-12.6,1.1-5.6,1.9-11.3,2.8-16.9.4-2.3.9-4.5,1.3-6.7.3-1.8-.2-2.6-2.3-2.6-6.1,0-12.1-.3-18.2-.3-3.1,0-3.3-1.8-2.9-4.1,1.2-6.7,2.4-13.5,3.7-20.2.5-2.7,2.1-4,4.9-3.9,11.3,0,22.6,0,33.9,0v.2Z"/>
      <path class="cls-1" d="m352.9,267.2c-10.2-.1-18.5-3.8-22.7-13-2.2-4.9-2.7-10.9-2.8-16.4,0-6.3,1.1-12.7,2.1-19,.8-5.4,2.1-10.8,3.3-16.1,1.6-6.9,2.8-14,5.3-20.6,4.6-12,13-19.6,26.6-20.7,9.2-.8,17.1,1.1,23.4,8,4,4.4,4.7,9.9,4.5,15.5-.1,5.5-.6,11-1.2,16.5-.6,4.9-1.4,9.7-2.4,14.5-1.9,9.1-3.6,18.3-6.2,27.2-2.8,9.7-7.5,18.4-17.8,22-3.9,1.4-8.1,1.6-12.2,2.3Zm1.7-19.9c3.8.1,6.8-1.3,7.8-5.1,1.5-5.4,2.7-10.9,3.7-16.4,1.1-6,1.9-12,2.8-18,1.1-7.2,2.3-14.3,3.2-21.5.4-3.6-2.3-6.6-5.4-6.6-3.9.1-7.3,1.4-8.5,5.5-2,7-3.8,14-5.4,21.1-2.7,11.4-4.9,22.9-4.5,34.8.2,4.6,1.6,6.2,6.3,6.2Z"/>
      <path class="cls-1" d="m285.3,188.6c-.5,8.6-.4,15.4-1.3,22.2-1.7,12.7-4,25.2-9.5,36.9-4.2,8.9-10.6,15.6-21.1,16.3-8.2.5-16.4.2-24.6.2-2.5,0-5.1-.2-7.6,0-3.4.2-3.6-1.6-3-4.2,1.3-6.5,2.5-13,3.8-19.5,1.5-7.7,3-15.4,4.4-23.1,1.4-7.7,2.6-15.4,4-23.1,1.7-9.4,3.5-18.8,5.3-28.3.4-2.3,1.8-2.8,4.2-2.8,5.8.2,11.7,0,17.5,0,9.5,0,18.6,1.5,23.2,11.2,2.3,4.9,3.4,10.5,4.6,14.3Zm-39,56.8c4.6.1,8.2-2.2,10-6.6,2.2-5.6,4.5-11.4,5.6-17.3,1.6-8.9,2.8-17.9,3-26.9.3-8.8-1.1-13-10-13.1-.9,0-2.5,1.5-2.7,2.5-1,4.2-1.7,8.6-2.4,12.9-1,5.9-2.1,11.8-3,17.7-.6,3.7-.9,7.4-1.5,11.1-.9,5.4-1.6,10.9-3.1,16.2-1.2,4.4,1.7,3.3,4.2,3.5Z"/>
      <path class="cls-1" d="m176.4,265.6c-7.2.2-14-.7-19.4-5.9-4.9-4.8-7-11-6.4-17.8,1-9.9,2.4-19.8,3.8-29.7,1-7.5,2.2-15,3.4-22.5.6-4.1,1.4-8.1,2.2-12.1.7-3.7,1.7-7.4,2.4-11.1.4-2.3,1.3-3.3,3.7-3.2,4.6.1,9.3-.1,14-.1,2.8,0,3.4,2,3.1,4.1-.6,4-1.5,8.1-2.2,12.1-1,5.4-2,10.8-3,16.2-1.2,6.7-2.5,13.3-3.6,20-.9,5.4-1.5,10.9-2.2,16.3-.3,2.4-.7,4.8-.8,7.2,0,4.7,3.4,6.9,8,6,5.4-1.2,6.2-5.7,7.1-9.7,2.9-12.3,5.5-24.8,7.9-37.2,1.4-7.3,2.2-14.6,3.4-22,.6-3.7,1.4-7.4,2.2-11.1.7-3.2,3.5-1.9,5.3-2,4.4-.3,8.9-.4,13.3-.1.9,0,2.6,2.1,2.4,3.1-.6,4.9-1.7,9.8-2.7,14.6-1.4,6.7-3,13.5-4.4,20.2-2,10-4.1,20.1-5.9,30.2-1.5,8.4-3.7,16.5-8,23.9-3.3,5.7-8.6,8.2-14.5,9.6-3,.7-6.1.7-9.2.9Z"/>
      <path class="cls-1" d="m440.1,195.3c-1.4,0-2.8,0-4.2,0-4.1-.2-4.9-1.4-4-5.5.5-2.1.7-4.4.4-6.6-.3-3-2.1-5.2-5.2-5.4-3.1-.2-5.5,3.2-6,7.1-.7,6,1.7,10.8,5.2,15.3,4.1,5.2,8.8,10,12.5,15.5,6.4,9.4,7.3,20.2,5.7,31.1-1.7,11.5-10.1,19.2-21.9,19.3-4.8,0-9.7.2-14.4-.8-7.1-1.4-10.9-6.6-13.3-13.3-2.5-6.9-2.2-13.9-1.2-21,.5-3.4,3.8-3,6.1-3.2,3-.3,6.1.2,9.1.3,2.7,0,3.8,1.3,3.8,4,0,4,0,8,.4,11.9.4,2.9,2.5,4.8,5.6,4.5,3.3-.3,5.3-3.1,5.8-6.4,2-12.9-4.9-21.9-12.8-30.6-4.2-4.6-8.8-9.2-9.5-15.5-.6-5.2-.3-10.7.9-15.8,1-4.2,3.3-8.7,6.2-11.9,6-6.5,14.1-7.3,22.7-6.4,7,.7,12.5,3.5,16,9.7,2.9,5.3,3.5,11.2,2,16.9-1.8,7.1-2.1,7-10,6.9Z"/>
      <path class="cls-1" d="m109.9,264.8c-2.5,0-5,.2-7.5-.1-.8,0-2.1-1.6-2-2.3,2-11.6,4.3-23.2,6.4-34.7,2-10.4,4-20.9,5.9-31.3.7-3.9,1.3-7.9,1.8-11.9,0-.5-1-1.6-1.6-1.6-3.8-.1-7.6,0-11.4,0-2.6,0-3.6-.9-2.9-3.8,1-4.3,1.4-8.7,2.4-12.9.3-1.3,2.1-3.2,3.2-3.2,14.7-.3,29.5-.2,44.2-.3,5.3,0,5.8.7,4.8,6-.8,4.2-1.4,8.4-2.3,12.5-.1.7-1.3,1.6-2,1.6-2.7.2-5.3,0-8,0-5.6,0-5.4,0-6.3,5.5-1.2,7.2-2.9,14.3-4.3,21.5-1.7,8.7-3.2,17.5-4.9,26.3-.8,4.2-1.8,8.3-2.6,12.5-.9,4.4-1.5,8.8-2.6,13.1-.3,1.3-2,2.8-3.3,3.1-2.3.5-4.7.1-7.1.1,0,0,0,0,0-.1Z"/>
      <path class="cls-1" d="m299.6,264.6c-3,0-5.9,0-8.9,0-2.8,0-3.5-1.6-3.1-3.9,1.6-8.4,3.4-16.7,4.9-25,1.1-6.3,1.9-12.8,2.9-19.1.7-4.4,1.8-8.8,2.6-13.2.7-4.1,1.2-8.2,1.9-12.3,1.5-8.2,3-16.4,4.8-24.5.3-1.2,2.1-2.9,3.4-3,5.1-.5,10.2-.6,15.3-.5.8,0,2.4,2,2.2,2.9-1.2,7.8-2.9,15.5-4.2,23.2-1,6.1-1.7,12.2-2.8,18.3-.9,5.4-2.3,10.7-3.3,16.1-1.2,6.3-2.1,12.7-3.2,19-1.1,6.6-2.1,13.3-3.4,19.9-.2,1-1.8,2.1-2.9,2.3-2.1.4-4.3.1-6.4.1,0,0,0-.1,0-.2Z"/>
    </g>
  </g>
</svg>