<svg width="52" height="90" viewBox="0 0 52 90" fill="none" xmlns="http://www.w3.org/2000/svg">
<path d="M51.9247 32.6632C51.931 40.4113 51.9363 47.02 51.9416 53.6286C51.9439 56.4392 51.9461 59.2498 51.9483 61.9844C51.9495 63.5036 52.1004 65.0986 51.7276 66.5423C51.504 67.4541 50.6821 68.3664 49.86 68.975C52.401 66.9974 47.3188 71.0285 49.86 68.975C46.8703 71.2568 47.8421 70.6482 44.8524 72.8541C49.4862 69.2031 46.2722 71.4094 43.208 73.8432C41.5638 75.2122 40.3665 74.3018 38.9448 73.4677C35.3534 71.1925 31.6871 68.9174 28.0955 66.6422C26.8236 65.8839 25.6263 64.9735 24.429 64.1392C23.6808 63.6082 23.6804 63.1525 24.652 62.4678C26.1468 61.3269 8.35921 75.3219 9.77926 74.181C12.1709 72.3555 22.2605 64.3693 24.652 62.4678C26.8941 60.6424 21.5879 64.9777 23.7552 63.0765C25.1003 61.8597 25.9971 61.0232 27.4169 59.7304C27.4169 59.7304 28.164 58.6662 28.2383 58.0584C28.3125 57.4507 28.3119 56.767 28.3116 56.3112C28.3065 50.0064 28.3014 43.7016 28.2964 37.3968C28.2947 35.3459 28.293 33.2189 28.2914 31.168C28.2878 26.7622 28.2843 22.4324 28.2808 18.0266C28.2803 17.4714 28.2796 16.5074 28.5785 16.1273C28.8773 15.7471 30.4483 16.5052 31.0469 16.8844C33.8154 18.6287 35.312 19.6146 38.0803 21.283C41.7467 23.5581 45.413 25.9092 49.154 28.0324C51.5482 29.3973 51.9985 31.3718 51.85 32.7393L51.9247 32.6632Z" fill="white"/>
<path d="M25.0314 13.0585C25.0314 16.854 25.0314 20.6495 25.0314 24.4449C25.0314 30.3032 25.0314 36.0789 25.0314 41.9371C25.0314 45.5676 25.0314 49.1981 25.0314 52.746C25.0314 53.7362 25.0314 54.6437 24.8054 55.7989C24.504 57.0365 24.082 53.1799 22.5 54.5C19 48 20.5 49.5 19 48C17.5 46.5 19 48.5 17 46.5C16.5 45 15.5 44 14.5 43C13.37 43.7426 13.6273 41.2545 13 40C11 36 10.9853 39 8.98533 35C3.30276 23.6349 3.33534 21.8871 1.22595 21.7221C1.22595 20.6495 1.22595 21.3096 1.22595 18.5042C1.22595 16.9366 2.20529 16.1939 3.18463 15.5338C5.97197 13.4711 8.83465 11.4083 11.622 9.2631C19.3813 3.40487 20.5113 2.49726 21.1894 2.00219C21.9427 1.42463 22.6207 0.847049 23.4494 0.269478C23.7507 0.104457 24.2027 -0.0605636 24.4287 0.0219466C24.8054 0.186967 24.956 0.682029 24.956 1.09458C24.956 5.05507 25.0314 8.99613 25.0314 12.9567V13.0585Z" fill="white"/>
<path d="M22.5454 59.2642C24.1274 57.9442 24.5041 57.0365 24.8054 55.7989L1.22597 18.5042V21.7221C1.15064 34.4287 0.99997 47.2177 0.99997 59.9243V71.8059C0.99997 73.2085 2.12997 74.5287 3.25998 73.7861C6.876 71.3933 6.34866 71.7234 7.55399 70.8157C9.51268 69.3306 11.4714 67.8453 13.3546 66.3602C16.368 63.9674 19.6074 61.7396 22.5454 59.2642Z" fill="url(#paint0_linear_213_120)"/>
<path d="M42.1619 74.9838C44.703 73.0063 45.9589 72.0535 48.5 70L27.4169 59.7305C25.9971 61.0232 25.1003 61.8598 23.7552 63.0765C21.5879 64.9777 19.1961 66.6513 16.954 68.4767C14.5624 70.3782 12.1709 72.3556 9.77926 74.1811C8.35921 75.322 6.86431 76.311 5.36951 77.4519C4.39786 78.1366 4.39822 78.5924 5.14651 79.1233C6.34375 79.9576 7.54104 80.868 8.813 81.6263C12.4045 83.9015 16.0708 86.1766 19.6623 88.4519C21.084 89.286 22.2813 90.1963 23.9255 88.8273C26.9897 86.3935 30.2037 84.1873 33.2679 81.8294C36.2576 79.6235 39.1723 77.2657 42.1619 74.9838Z" fill="url(#paint1_linear_213_120)"/>
<defs>
<linearGradient id="paint0_linear_213_120" x1="19.5" y1="50.5" x2="-8" y2="81.5" gradientUnits="userSpaceOnUse">
<stop stop-color="white"/>
<stop offset="1" stop-color="white" stop-opacity="0.5"/>
</linearGradient>
<linearGradient id="paint1_linear_213_120" x1="30.5" y1="67.5" x2="-5.4922" y2="104.508" gradientUnits="userSpaceOnUse">
<stop stop-color="white"/>
<stop offset="1" stop-color="white" stop-opacity="0.5"/>
</linearGradient>
</defs>
</svg>
