<?xml version="1.0" encoding="UTF-8"?>
<svg id="Layer_2" data-name="Layer 2" xmlns="http://www.w3.org/2000/svg" viewBox="0 0 309.2 68.72">
  <g id="Layer_1-2" data-name="Layer 1">
    <g>
      <g>
        <path d="m127.42,48.92c0,3.15-.03,6.29.01,9.44.02,1.38-.52,2.36-1.61,3.21-13.51,10.61-34.59,9.18-46.96-2.7-11.56-11.1-12.59-32.43-1.74-44.76,6.72-7.64,15.25-11.34,25.34-11.73,6.17-.24,12.05.76,17.27,4.23,1.95,1.29,3.67,2.94,5.43,4.49.73.64.76,1.39.01,2.18-2.62,2.78-5.23,5.58-7.78,8.43-.96,1.06-1.68,1.2-2.85.18-3.68-3.19-7.9-4.85-12.88-4.14-6.91.99-11.92,5.88-13.39,13.2-1.08,5.34-.48,10.45,2.36,15.17,3.46,5.75,10.92,8.63,17.38,6.84,1.5-.41,2.18-1.17,2.14-2.77-.07-3.62-.03-7.24-.01-10.85.01-2.03.28-2.31,2.25-2.32,4.25-.02,8.49-.02,12.74,0,1.97,0,2.26.3,2.27,2.31.02,3.2,0,6.4,0,9.6Z" fill="#fff"/>
        <path d="m204.08,61.99c-.74.49-1.17.69-1.49.99-4.1,3.81-9.15,4.31-14.29,3.69-9.76-1.17-15.34-6.87-17.19-17.08-1.31-7.23-.25-14.02,4.06-20.09,6.35-8.95,17-12.3,27.63-8.89,1.2.38,2.56.46,3.83.39,3.35-.17,6.69-.49,10.03-.74,1.78-.13,2,.05,2.01,1.88.02,6.35.01,12.69.01,19.04,0,7.39,0,14.79,0,22.18,0,2.26-.13,2.49-2.32,2.67-3.29.27-6.59.36-9.89.55-1.03.06-1.56-.35-1.73-1.37-.16-.96-.39-1.91-.67-3.23Zm1.2-21.39q-.1-4.65-4.61-5.77c-3.09-.77-6.19-1.2-9.25.11-3.82,1.64-5.7,4.68-5.94,8.72-.19,3.28.81,6.23,3.81,7.93,3.83,2.17,7.85,2.08,11.71-.01,2.26-1.22,3.5-3.28,3.83-5.82.22-1.71.31-3.44.46-5.16Z" fill="#fff"/>
        <path d="m283.56,46.11c-4.25,0-8.5-.02-12.74,0-1.72,0-1.93.31-1.58,1.98,1.02,4.84,4.72,7.9,9.89,8.08,4.97.16,9.83-.59,14.57-2.06,1.98-.62,2.06-.58,2.74,1.31.8,2.22,1.6,4.44,2.42,6.65.45,1.2.15,1.99-1.07,2.5-10.66,4.42-21.5,5.04-32.38,1.1-6.99-2.53-11.4-7.69-13.25-14.9-2.48-9.66-.79-18.35,6.48-25.51,4.17-4.11,9.32-6.33,15.12-7.08,6.11-.79,11.84.19,16.9,3.85,7.8,5.65,10.01,13.71,7.81,22.69-.31,1.27-1.27,1.37-2.32,1.37-4.2,0-8.39,0-12.59,0h0Zm-7.16-6.92s0,0,0,0c1.99,0,3.98.09,5.96-.06.61-.05,1.6-.67,1.68-1.16.37-2.17.04-4.3-1.4-6.08-1.93-2.4-5.83-3.26-8.91-2.05-2.75,1.08-5.19,4.89-4.99,7.73.08,1.12.65,1.59,1.71,1.6,1.99,0,3.97,0,5.96,0Z" fill="#fff"/>
        <path d="m161.42,42.5c0,7.24,0,14.47,0,21.71,0,2.88-.1,2.97-3.04,2.97-4.04,0-8.08.01-12.11,0-2.19,0-2.44-.24-2.44-2.45,0-14.11,0-28.21,0-42.32,0-.63,0-1.26,0-1.89,0-2.96-.1-3.05-3.13-3.05-3.25,0-6.5,0-9.75,0-2.33,0-2.44-.14-1.95-2.46.63-3.03,1.33-6.04,1.92-9.08.26-1.35.91-1.98,2.33-1.98,13.84.02,27.69,0,41.53.02,1.84,0,2.12.4,1.74,2.2-.62,2.98-1.25,5.95-1.88,8.93-.46,2.15-.69,2.35-2.96,2.36-2.62.01-5.24,0-7.87.01-2.08.02-2.37.3-2.38,2.38-.01,7.55,0,15.1,0,22.65Z" fill="#fff"/>
        <path d="m245.44,33.58c0,10.28,0,20.56,0,30.83,0,2.6-.17,2.76-2.77,2.76-3.78,0-7.55.02-11.33,0-1.91-.01-2.23-.31-2.23-2.19-.01-20.56-.01-41.11,0-61.67,0-2.03.42-2.37,2.54-2.5,3.77-.23,7.53-.47,11.29-.77,2.2-.17,2.49,0,2.49,2.23.01,10.44,0,20.87,0,31.31Z" fill="#fff"/>
      </g>
      <path d="m64.63,25.53c-1.83-6.57-5.53-11.93-11.33-15.73-5.97-3.91-12.61-5.68-19.65-5.81-3.4-.06-6.8-.08-10.2-.08,0,.08.02.15.02.23v11.94c0,.51-.11,1-.28,1.45.32-.05.73-.07,1.25-.06,2.88.03,5.78-.04,8.63.27,8.33.9,13.48,6.08,14.32,14.52.5,4.95.26,9.87-2.58,14.27-2.96,4.58-7.4,6.49-12.63,6.79-2.61.15-5.24.05-7.86.03-1.99-.02-2.3-.31-2.31-2.28-.02-5.24,0-10.48,0-15.72,0-5.14-.01-10.27,0-15.41,0-.32.01-.58.03-.82-.68.56-1.54.91-2.49.91H4.41c0,5.19,0,10.38,0,15.57,0,9.44,0,18.87,0,28.31q0,3.27,3.2,3.27c7.6,0,15.2.02,22.81,0,4.74-.02,9.42-.54,13.98-1.9,9.6-2.87,16.54-8.74,19.82-18.36,2.39-7.03,2.41-14.25.42-21.38Z" fill="#fff"/>
      <rect y=".15" width="18.16" height="14.31" rx="2.01" ry="2.01" fill="#fff"/>
    </g>
    <g>
      <text transform="translate(301.54 19.93)" fill="#fff" font-family="&apos;a_Plakat-ExtraBold&apos;, a_Plakat" font-size="6.4" font-weight="700"><tspan x="0" y="0">R</tspan></text>
      <circle cx="303.77" cy="17.63" r="4.93" fill="none" stroke="#fff" stroke-miterlimit="10"/>
    </g>
  </g>
</svg>