<svg width="2929" height="2972" viewBox="0 0 2929 2972" fill="none" xmlns="http://www.w3.org/2000/svg">
<path d="M1039.91 167.161C1185.73 167.163 1331.55 167.996 1477.37 170.463L1491.5 170.707C1803.46 176.468 2097.67 254.901 2362.2 428.152C2619.17 596.516 2783.1 833.992 2864.18 1125.1L2864.22 1125.22L2864.66 1125.67C2952.46 1440.34 2951.91 1758.95 2847.25 2069.26L2846.02 2072.91C2701.26 2497.47 2395.62 2757.19 1972.82 2884.9L1967.84 2886.39C1765.78 2946.66 1558.4 2969.7 1348.33 2970.59C1011.03 2971.48 674.17 2970.59 337.306 2970.59C290.107 2970.59 254.798 2958.53 231.285 2934.51C207.77 2910.48 195.969 2874.39 195.969 2826.15V881.677H866.535C908.347 881.677 946.231 866.423 976.309 841.969C975.484 852.299 975.072 863.51 975.072 877.187C974.629 1105.02 975.072 1332.4 975.072 1560.23C975.072 1785.23 974.24 2010.24 974.994 2235.25L975.072 2257.02C975.183 2278.86 976.124 2296.07 978.863 2309.62C981.603 2323.18 986.151 2333.1 993.506 2340.32C1000.86 2347.53 1010.97 2351.98 1024.72 2354.68C1038.46 2357.39 1055.9 2358.36 1077.96 2358.58H1077.96C1194.07 2359.47 1310.67 2363.9 1426.38 2357.25C1658.31 2343.94 1855.27 2259.23 1986.58 2056.06V2056.05C2111.57 1862.41 2123.01 1646.08 2101.53 1428.36L2101.01 1423.22C2082.39 1236.08 2015.98 1085.04 1908.01 975.791C1800.04 866.545 1650.55 799.132 1465.85 779.176H1465.85C1339.5 765.432 1210.92 768.534 1083.29 767.205H1083.29C1060.68 766.77 1042.74 767.615 1028.64 769.742C1036.02 749.97 1040.79 728.47 1040.79 706.094V176.855C1040.79 175.044 1040.56 173.35 1040.34 171.692C1040.14 170.187 1039.94 168.711 1039.91 167.161Z" fill="black" stroke="black"/>
<path d="M89.0918 0.5H715.834C764.761 0.500231 804.425 40.1645 804.425 89.0928V545.195C804.425 594.123 764.761 633.788 715.834 633.788H89.0918C40.1643 633.788 0.500165 594.124 0.5 545.195V89.0928C0.500033 40.1643 40.1642 0.5 89.0918 0.5Z" fill="black" stroke="black"/>
</svg>
