<svg width="295" height="91" viewBox="0 0 295 91" fill="none" xmlns="http://www.w3.org/2000/svg">
<path d="M72.4 21.3998H72V68.6998H94.4C99.5 68.6998 104.1 67.6998 108.1 65.7998C112.1 63.8998 115.2 61.0998 117.4 57.4998C119.6 53.8998 120.7 49.7998 120.7 44.9998C120.7 40.1998 119.6 36.0998 117.4 32.4998C115.2 28.8998 112.1 26.1998 108.1 24.1998C104.1 22.2998 99.5 21.2998 94.4 21.2998H72.4V21.3998ZM103.3 54.1998C101 56.3998 97.9 57.4998 93.9 57.4998H85.9V32.6998H93.9C97.8 32.6998 100.9 33.7998 103.3 35.9998C105.6 38.1998 106.8 41.1998 106.8 45.0998C106.8 48.9998 105.6 51.9998 103.3 54.1998Z" fill="black" stroke="black" stroke-width="0.5"/>
<path d="M153.2 43.7002H152.8V56.6002C150.7 57.5002 148.4 58.0002 146 58.0002C143.6 58.0002 141.3 57.5002 139.3 56.4002C137.4 55.3002 135.9 53.8002 134.8 51.8002C133.7 49.8002 133.2 47.6002 133.2 45.1002C133.2 41.1002 134.4 38.0002 136.8 35.7002C139.2 33.4002 142.3 32.2002 146.2 32.2002C150.1 32.2002 154.2 33.9002 157.3 37.3002L157.5 37.6002L157.8 37.4002L166.2 29.8002L166.5 29.6002L166.3 29.3002C164 26.5002 161 24.4002 157.5 22.9002C154 21.4002 150 20.7002 145.7 20.7002C141.4 20.7002 136.2 21.7002 132.1 23.8002C128.1 25.9002 125 28.8002 122.7 32.6002C120.5 36.3002 119.3 40.6002 119.3 45.3002C119.3 50.0002 120.4 54.3002 122.7 58.0002C125 61.7002 128.1 64.7002 132 66.8002C136 68.9002 140.4 69.9002 145.3 69.9002C150.2 69.9002 152.3 69.4002 155.8 68.4002C159.3 67.4002 162.4 65.9002 165.1 64.0002H165.3V44.0002H153.3L153.2 43.7002Z" fill="black" stroke="black" stroke-width="0.5"/>
<path d="M163 32.2004V32.6004H177.3V68.7004H191.2V32.6004H205.5V21.4004H163V32.2004Z" fill="black" stroke="black" stroke-width="0.5"/>
<path d="M233.3 35.4998C230.1 32.6998 225.4 31.2998 219.3 31.2998C213.2 31.2998 213.5 31.6998 210.6 32.3998C207.7 33.0998 205.2 34.1998 203.2 35.4998L202.9 35.6998V35.9998C203 35.9998 207.3 44.5998 207.3 44.5998L207.5 44.9998L207.9 44.6998C209.1 43.7998 210.6 42.9998 212.3 42.4998C214 41.8998 215.8 41.6998 217.5 41.6998C219.9 41.6998 221.7 42.1998 222.9 43.0998C224 43.8998 224.6 45.0998 224.8 46.6998H218C212.5 46.6998 208.4 47.5998 205.7 49.5998C203 51.5998 201.6 54.2998 201.6 57.7998C201.6 61.2998 202.1 61.9998 203.2 63.6998C204.3 65.3998 205.9 66.7998 208 67.7998C210.1 68.7998 212.6 69.2998 215.4 69.2998C220.2 69.2998 223.6 67.8998 225.7 64.9998V68.6998H238.2V48.2998C238.2 42.5998 236.6 38.2998 233.4 35.4998H233.3ZM222.5 59.5998C221.5 60.2998 220.2 60.5998 218.8 60.5998C217.4 60.5998 216.3 60.2998 215.6 59.6998C214.9 59.0998 214.5 58.2998 214.5 57.2998C214.5 56.2998 214.9 55.3998 215.7 54.8998C216.5 54.2998 217.8 53.9998 219.6 53.9998H224.7V56.6998C224.2 57.9998 223.5 58.8998 222.5 59.5998Z" fill="black" stroke="black" stroke-width="0.5"/>
<path d="M240.3 18.5996H239.9V68.6996H253.3V18.5996H240.3Z" fill="black" stroke="black" stroke-width="0.5"/>
<path d="M294.7 50.8002C294.7 46.9002 293.9 43.5002 292.1 40.6002C290.4 37.7002 288 35.5002 285 34.0002C282 32.5002 278.7 31.7002 275.1 31.7002C271.3 31.7002 267.8 32.5002 264.7 34.1002C261.6 35.7002 259.2 38.0002 257.4 40.8002C255.7 43.7002 254.8 46.9002 254.8 50.5002C254.8 54.2002 255.7 57.4002 257.4 60.4002C259.2 63.3002 261.7 65.6002 265 67.2002C268.3 68.8002 272 69.6002 276.3 69.6002C283.1 69.6002 288.3 67.7002 292 63.7002L292.2 63.5002L292 63.3002L285.4 56.4002L285.2 56.2002L284.9 56.4002C283.6 57.5002 282.4 58.2002 281.2 58.7002C280 59.2002 278.5 59.4002 276.8 59.4002C274.5 59.4002 272.7 58.9002 271.2 58.0002C269.9 57.1002 268.9 55.9002 268.4 54.4002H294.1H294.4V54.1002C294.6 52.1002 294.6 51.1002 294.6 51.0002L294.7 50.8002ZM275.2 41.4002C277.1 41.4002 278.6 41.9002 279.8 43.0002C280.9 44.0002 281.7 45.3002 282.1 46.9002H268.2C268.6 45.2002 269.3 43.9002 270.5 43.0002C271.7 42.0002 273.3 41.4002 275.2 41.4002Z" fill="black" stroke="black" stroke-width="0.5"/>
<path d="M57.2053 28.5829C57.2053 37.0271 57.2053 44.2295 57.2053 51.4319C57.2053 54.495 57.2053 57.5581 57.2053 60.5384C57.2053 62.1941 57.3709 63.9326 56.9569 65.5055C56.7086 66.499 55.7979 67.4924 54.8873 68.1547C52.0725 70.3899 49.175 72.5424 46.3603 74.6948C43.0488 77.1784 39.8202 79.7448 36.5087 82.1456C33.1145 84.7119 29.5547 87.1128 26.1605 89.7619C24.3392 91.2521 23.0146 90.2586 21.4416 89.348C17.4679 86.8644 13.4114 84.3808 9.43763 81.8972C8.03027 81.0694 6.70569 80.0759 5.38111 79.1653C4.55324 78.5858 4.55324 78.0891 5.62946 77.344C7.28519 76.1022 8.94091 75.026 10.5139 73.7842C13.163 71.7973 15.8122 69.6449 18.4613 67.5752C20.9449 65.5883 23.5941 63.767 25.9949 61.6974C27.485 60.3728 28.4785 59.4621 30.0514 58.0548C31.6243 56.6474 30.8793 56.8958 30.9621 56.2335C31.0448 55.5712 31.0448 54.8261 31.0448 54.3294C31.0448 47.4581 31.0448 40.5869 31.0448 33.7156C31.0448 31.4804 31.0448 29.1624 31.0448 26.9272C31.0448 22.1255 31.0448 17.4067 31.0448 12.6051C31.0448 7.80353 31.0448 10.9494 31.376 10.5355C31.7071 10.1215 33.4456 10.9494 34.1079 11.3633C37.171 13.2674 38.8268 14.3436 41.8898 16.1649C45.9464 18.6485 50.0029 21.2149 54.1422 23.5329C56.7914 25.0231 57.2881 27.1755 57.1225 28.6657L57.2053 28.5829Z" fill="black"/>
<path d="M26.4088 13.1022C26.4088 16.9104 26.4088 20.7186 26.4088 24.5267C26.4088 30.4046 26.4088 36.1996 26.4088 42.0774C26.4088 45.72 26.4088 49.3626 26.4088 52.9224C26.4088 53.9159 26.4088 54.8265 26.1605 55.9855C25.8293 57.2273 25.4154 58.138 23.6769 59.4625C20.4482 61.9461 16.8884 64.1814 13.5769 66.5822C11.5073 68.0723 9.35485 69.5625 7.2024 71.0526C5.87782 71.9633 6.45733 71.6321 2.48359 74.0329C1.24179 74.778 0 73.4534 0 72.0461C0 68.0723 0 64.0986 0 60.1248C0 47.3757 0.165572 34.5439 0.248359 21.7948C0.248359 20.7186 0.248359 21.3809 0.248359 18.5661C0.248359 16.9932 1.32458 16.2481 2.4008 15.5858C5.46389 13.5162 8.60977 11.4465 11.6729 9.29408C20.1998 3.41626 21.4416 2.50561 22.1867 2.00889C23.0146 1.42939 23.7597 0.849882 24.6703 0.270379C25.0014 0.104806 25.4982 -0.0607662 25.7465 0.02202C26.1605 0.187592 26.326 0.68431 26.326 1.09824C26.326 5.07198 26.326 9.04572 26.326 13.0195L26.4088 13.1022Z" fill="black"/>
</svg>
