<?xml version="1.0" encoding="UTF-8"?>
<svg id="Layer_2" data-name="Layer 2" xmlns="http://www.w3.org/2000/svg" viewBox="0 0 397.8 100.9">
  <g id="Layer_1-2" data-name="Layer 1">
    <g>
      <path d="m0,99.5V2.9c.4,0,.7-.1,1.1-.1,14.9,0,29.9,0,44.8,0,6.3,0,12.4,1,18.3,3.3,9.9,3.9,17.3,10.6,22.3,20,3.1,5.8,4.9,12,5.7,18.5.6,4.7.6,9.5,0,14.2-1.4,9.5-4.8,18.1-11,25.4-6.7,7.9-15.3,12.5-25.3,14.4-3.3.6-6.7.9-10.1.9-14.7,0-29.4,0-44.2,0H0Zm35.8-37.4h1.5c3,0,6,0,9.1,0,3.8,0,6.5-1.7,8.1-5.1,1.8-3.9,1.9-7.8,0-11.8-1.6-3.5-4.4-5.4-8.3-5.4-3.1,0-6.2,0-9.3,0-.3,0-.7,0-1,0v22.1Z"/>
      <path d="m185.3,52.6v5.3h13.1v41.5c-.3,0-.6,0-.9,0-17.6,0-35.2.1-52.8,0-10.3-.1-20-2.8-28.7-8.5-7.3-4.8-12.8-11.2-16.4-19.2-2.6-5.6-3.9-11.6-4.4-17.7-.8-9.8,1.1-19,5.9-27.6,2.8-5,6.4-9.4,10.7-13.1,6.6-5.8,14.1-9.7,22.6-11.7,5.5-1.3,11-1.8,16.6-1.3,5.6.5,11,1.6,16.1,3.7,7.9,3.2,14.8,7.9,20.2,14.6,1.5,1.8,2.7,3.8,4.1,5.7.2.3.3.6.5,1h-6.6v24.6h-24.8c-.2-.9-.3-1.7-.6-2.5-1.7-5.2-5.4-8.3-10.8-9.3-7.2-1.4-14.4,3.6-15.7,10.9-1.7,9.1,5.2,16,12.2,16.2,4.7.1,9.5,0,14.2,0,.1,0,.3,0,.4,0,.3-.9.4-8.2,0-10.1-3.3-.1-6.6,0-10,0v-2.3c1.2-.3,33.8-.3,34.9,0Z"/>
      <path d="m379.6,75.3h-20.1c.4-.4.6-.6.9-.8,2.5-2.4,1.9-6.1-1.2-7.5-1.5-.7-3-.8-4.6-.3-1.9.6-3.3,2.3-3.5,4.2-.2,2.2.4,4.1,2.5,5.1,1,.5,2.2.6,3.3.6,8.7,0,17.3,0,26,0h1.6c.3,1,.4,20.6.2,24-.3,0-.6.1-.9.1-9.5,0-19.1.1-28.6,0-6.7-.1-12.6-2.5-17.7-6.8-5.3-4.5-8.6-10.1-9.8-17-1.1-6.3-.4-12.4,2.4-18.2,4.2-8.7,11.2-13.7,20.6-15.4,7.2-1.3,14.4-.8,21.2,2.1,6.1,2.6,10.3,7,11.8,13.7.9,3.8.9,7.7-.6,11.4-.7,1.9-1.8,3.5-3.5,4.7Z"/>
      <path d="m298.6,100.8h-24c0-.6,0-1.1,0-1.6,0-8.8,0-17.6,0-26.4,0-.9,0-1.8-.3-2.7-.7-2.4-3-3.7-5.4-3.3-2.7.5-4.3,2.5-4.1,5.3.1,2.3,2,4.4,4.4,4.6,1.3.1,2.6,0,4,0v24c-1.8,0-3.5.1-5.3,0-5.6-.4-10.8-2.1-15.3-5.5-6.1-4.5-9.9-10.5-11.3-18-2.6-13.5,4.3-26.5,16.9-32.1,5.4-2.4,11-3,16.8-1.9,11.1,2,20.9,10.6,23.4,23.4.4,1.8.4,3.7.4,5.5,0,9.2,0,18.3,0,27.5,0,.4,0,.7,0,1.2Z"/>
      <path d="m230.9,99.2h-26.1v-45.1h-15.6v-25.1h57.2v19.4c-1.4,1.8-3,3.6-4.6,5.7h-11v45.2Z"/>
      <path d="m325.2,100.8h-24.4c-.3-1-.4-68.6,0-70.3h24.5v70.3Z"/>
      <path d="m391.6,53.7c-2,0-3.4-1-4.3-2.7-.9-1.8-1.1-3.5,0-5.3,1.3-2.1,4.4-3.3,6.7-2.7,3.2.8,5.3,5.7,2.4,8.6-1.3,1.3-2.9,2.1-4.8,2.1Zm1.1-8.7c-1.3,0-2.6.6-3.5,1.8-.9,1-.9,2.1-.3,3.3.6,1.1,1.5,1.7,2.7,1.6,1.4,0,2.6-.6,3.6-1.7.8-.9.9-2,.5-3.2-.5-1.2-1.4-1.8-2.9-1.8Z"/>
      <path d="m376.5,25.1c1.3.8,2.5,1.5,3.7,2.3,2.1,1.6,2.7,3.8,1.5,6.2-.2.4-.5.9-.8,1.3-1.5,2.1-3.6,2.8-6,1.7-1.3-.6-2.5-1.3-3.9-2.1,1.9-3.2,3.7-6.2,5.6-9.5Zm.8,2.7c-1.2,2.1-2.4,4.1-3.6,6.1,1.4.9,2.8,1.8,4.3.9,1.4-.9,2.2-2.2,2.1-4-.1-1.7-1.5-2.3-2.8-3.1Z"/>
      <path d="m340.6,28.7c-.6.4-1.1.7-1.6,1.1-1.1-.7-2.1-.7-3.1,0-.6.5-.9,1.1-.5,1.9.7.6,1.4.3,2.2.1.9-.2,1.7-.6,2.6-.8,1.3-.3,2.3,0,3.1,1.1.8,1.1,1,2.3.2,3.5-1,1.7-3.4,2.9-5.3,2.6-1-.2-1.8-.6-2.3-1.5.6-.4,1.1-.7,1.6-1,2.3,1.1,3.7.6,4.6-1.5-.1-.3-.3-.7-.4-.9-.9-.5-1.6-.2-2.3,0-.9.3-1.7.6-2.6.8-2.2.5-4-1.5-3.3-3.6.5-1.7,1.9-2.6,3.5-3,1.4-.3,2.8,0,3.8,1.3Z"/>
      <path d="m360.4,21.3c.7,0,1.3.2,2,.3-.3,2.1-.6,4-.9,6,0,.3-.1.6-.1.9-.1,1.6.4,2.3,1.9,2.5,1.5.2,2.3-.3,2.6-1.8.3-1.8.6-3.6.8-5.5,0-.4.2-.9.3-1.5.7.1,1.2.2,2,.4-.2,1.7-.5,3.4-.7,5-.1.8-.2,1.7-.5,2.5-.5,1.8-1.7,2.8-3.5,2.7-.9,0-1.8-.1-2.7-.4-1.7-.6-2.6-2.1-2.4-3.9.3-2.4.7-4.7,1.1-7.3Z"/>
      <path d="m352.6,32.7c-.7.2-1.2.3-2,.5-.7-2.9-1.3-5.8-2-8.8-1.1.2-2.1.4-3.2.6-.1-.6-.3-1.1-.4-1.7,2.9-.6,5.6-1.2,8.4-1.8.1.6.3,1.1.4,1.7-1.1.3-2,.5-3.2.8.6,2.9,1.2,5.7,1.9,8.8Z"/>
      <path d="m389,34.3c.5.6.9,1,1.4,1.5-2.6,2.5-5.2,4.8-7.9,7.3-.5-.5-.9-.9-1.4-1.5,2.6-2.4,5.2-4.8,7.9-7.3Z"/>
    </g>
  </g>
</svg>